<?xml version="1.0" encoding="UTF-8"?>
<svg id="Layer_1" data-name="Layer 1" xmlns="http://www.w3.org/2000/svg" viewBox="0 0 188.11 30.4">
  <defs>
    <style>
      .cls-1 {
        fill: #464444;
      }

      .cls-1, .cls-2, .cls-3 {
        stroke-width: 0px;
      }

      .cls-2 {
        fill: #ee482c;
      }

      .cls-3 {
        fill: #59595b;
      }
    </style>
  </defs>
  <path class="cls-1" d="M174.82.04c3.9,0,7.81,0,11.71,0,1.54,0,1.81.27,1.41,1.79-.41,1.52-.81,3.05-1.17,4.59-.15.63-.56.76-1.13.75-2.49-.01-4.98,0-7.47,0-1.21,0-1.32.08-1.63,1.26-1.57,5.97-3.14,11.94-4.71,17.91-.27,1.01-.59,2-.86,3.01-.15.54-.46.8-1.03.8-1.58,0-3.17.02-4.75-.01-1.08-.02-1.43-.54-1.14-1.65,1.31-4.96,2.62-9.92,3.95-14.87.49-1.85,1.02-3.69,1.55-5.53.18-.64.14-.95-.69-.93-2.46.05-4.92.03-7.38.02-1.35,0-1.58-.33-1.24-1.67.36-1.42.72-2.84,1.09-4.26.27-1.06.46-1.2,1.6-1.2,3.96,0,7.92,0,11.88,0Z"/>
  <path class="cls-2" d="M13.34.03c4.07,0,8.15.02,12.22-.01.71,0,1.01.14.97.93-.07,1.5-.04,3,0,4.49.01.57-.18.72-.73.71-2.72-.02-5.43-.01-8.15-.01-1.22,0-1.23,0-1.28,1.19-.26,6.01-.51,12.03-.77,18.04-.06,1.41-.15,2.82-.2,4.23-.02.5-.2.67-.72.66-1.67-.03-3.34-.03-5.01,0-.57,0-.74-.21-.72-.75.33-7.39.65-14.79.98-22.18.04-.95-.06-1.09-1.01-1.09-2.57,0-5.15,0-7.72,0-1.05,0-1.19-.13-1.19-1.15,0-1.36.05-2.72-.02-4.07C-.04.2.3.02,1.04.02c4.1.02,8.2.01,12.31.01Z"/>
  <path class="cls-1" d="M74.05.31c4.75,0,9.5.02,14.25-.02.77,0,.9.2.72.9-.5,1.85-.95,3.71-1.41,5.57-.15.59-.56.7-1.09.7-2.52,0-5.03,0-7.55,0-4.47,0-8.94.02-13.41-.02-.86,0-1.24.27-1.45,1.13-.64,2.6-.07,2.1-2.68,2.14-1.41.02-2.83,0-4.24.01-.45,0-.59-.1-.49-.58.63-2.95,1.23-5.9,1.84-8.86.14-.68.51-.97,1.25-.97,4.75.03,9.5.01,14.25.01,0,0,0-.02,0-.02Z"/>
  <path class="cls-1" d="M107.05,7.23c-4.47,0-8.94,0-13.4,0-1.59,0-1.92-.42-1.53-1.95.32-1.23.65-2.45.96-3.68.28-1.1.63-1.4,1.77-1.41,1.47-.02,2.94,0,4.41,0,7.41,0,14.82,0,22.22,0,.28,0,.57,0,.85.03.74.1,1.15.5.96,1.27-.42,1.72-.86,3.44-1.33,5.15-.19.68-.82.59-1.34.59-4.52,0-9.05,0-13.57,0Z"/>
  <path class="cls-1" d="M102.07,23.15c4.38,0,8.76,0,13.14,0,1.99,0,2.13.18,1.66,2.09-.34,1.39-.71,2.78-1.05,4.18-.14.56-.47.77-1.04.77-9.1-.01-18.2-.01-27.3-.02-.22,0-.45-.03-.67-.06-1.08-.17-1.24-.4-.98-1.47.37-1.5.79-3,1.13-4.51.19-.84.68-1.05,1.46-1.05,4.55.02,9.1,0,13.65,0,0,.02,0,.04,0,.06Z"/>
  <path class="cls-1" d="M104.01,18.66c-4.55,0-9.11,0-13.66,0-1.38,0-1.63-.31-1.3-1.62.37-1.48.76-2.95,1.13-4.42.15-.6.45-.9,1.12-.89,9.02.02,18.04.01,27.06.01.28,0,.57-.01.85.01.92.09,1.2.45.98,1.36-.41,1.67-.88,3.32-1.29,4.99-.16.64-.61.56-1.05.56-4.61,0-9.22,0-13.83,0Z"/>
  <path class="cls-2" d="M30.94,15.17c0-4.66,0-9.33,0-13.99,0-1.01.16-1.17,1.18-1.18,1.19,0,2.38,0,3.56,0,1.13,0,1.22.09,1.22,1.2,0,9.07,0,18.15,0,27.22,0,2.17.1,1.96-1.97,1.96-.96,0-1.92,0-2.89,0-.99,0-1.11-.13-1.11-1.14,0-4.69,0-9.39,0-14.08,0,0,0,0,0,0Z"/>
  <path class="cls-1" d="M71.31,30.04c.61-.86,1.26-1.69,1.6-2.71.38-1.12.51-2.25.57-3.41.03-.64.33-.86.97-.85,2.18.05,4.36.05,6.53.08,1.53.02,1.88.49,1.48,1.94-.38,1.38-.77,2.77-1.16,4.15-.13.46-.31.81-.9.82-2.97.02-5.94.06-8.91.1-.04,0-.08-.05-.19-.12Z"/>
  <path class="cls-1" d="M157.85,4.01c-.31-2.4-2.06-3.85-4.67-3.85-7.53,0-15.05.01-22.58.03-1.07,0-1.36.24-1.72,1.36-1.78,5.47-3.04,11.08-4.56,16.62-.95,3.47-1.89,6.96-2.83,10.43-.26.96.04,1.37,1,1.49,1.61.2,3.22-.01,4.83.04.77.02,1.05-.23,1.23-.91,1-3.87,2.02-7.74,3.04-11.61.13-.51.22-1.04.62-1.49.15.2.29.37.42.55,3.07,4.21,6.15,8.41,9.2,12.63.5.68,1.08.99,1.93.97,1.75-.03,3.51.03,5.26.02.48,0,.97-.04,1.43-.15.66-.15.85-.62.54-1.22-.13-.25-.3-.48-.47-.7-2.14-2.9-4.27-5.8-6.41-8.71-.13-.17-.37-.34-.28-.57.1-.28.4-.13.6-.14,1.69-.07,3.39.02,5.08-.11,2.78-.22,4.61-1.74,5.71-4.14,1.09-2.39,1.55-5,2.18-7.54.24-.99.57-1.97.44-3ZM150.08,7.94c-.28,1-.55,2.01-.8,3.02-.13.55-.43.79-1.01.79-4.74-.01-9.49-.02-14.23,0-.75,0-.86-.29-.66-.93.27-.89.52-1.79.72-2.69.15-.67.51-.92,1.19-.91,2.37.03,4.74,0,7.12,0,2.37,0,4.74.02,7.12-.02.63,0,.7.22.56.73Z"/>
  <path class="cls-2" d="M71.3,14.59c.76-.44,1.13-1.14,1.29-1.99.22-1.18.07-2.37.1-3.55.02-.48-.3-.46-.63-.46-1.13,0-2.26,0-3.4,0q-2.07,0-2.07,2.11c0,1.15-.02,1.16-1.2,1.17-5.46.04-10.92-.1-16.38.12-.89.04-1.05-.15-1-1.02.07-1.21.15-2.43.22-3.64.06-.97.32-1.24,1.3-1.25,1.7-.01,3.4-.02,5.09,0,.66.01.98-.23,1.09-.89.23-1.36.52-2.71.79-4.07.19-.98.18-1.01-.8-1.01-4.02,0-8.04,0-12.05,0q-1.42,0-1.48,1.46c-.2,4.63-.39,9.26-.59,13.89-.2,4.66-.39,9.32-.46,13.98,0,.63.16.82.81.82,8.01-.02,16.01-.03,24.02,0,3.48.01,5.43-2.06,5.74-4.89.19-1.68.17-3.39.39-5.06.22-1.65,0-3.15-1.02-4.48-.41-.53-.33-.91.23-1.23ZM65.79,19.25c-.06,1.3-.09,2.59-.13,3.89-.02.63-.32,1-.97,1.05-.23.02-.45.03-.68.03-5.03,0-10.06,0-15.09,0-1.25,0-1.35-.12-1.29-1.34.06-1.21.11-2.42.1-3.64,0-.7.27-.95.95-.95,2.71.02,5.42,0,8.14,0h0c2.66,0,5.31.02,7.97-.02.73,0,1.03.23,1,.97Z"/>
  <path class="cls-3" d="M56.57,22.56c-.87,0-1.75-.03-2.62.01-.61.03-.69-.21-.61-.75.27-1.76.25-1.8,2-1.88,1.46-.06,2.93-.02,4.39-.04.58,0,.78.19.65.82-.38,1.83-.36,1.84-2.21,1.84-.54,0-1.07,0-1.61,0Z"/>
</svg>